<!DOCTYPE svg PUBLIC "-//W3C//DTD SVG 20010904//EN" "http://www.w3.org/TR/2001/REC-SVG-20010904/DTD/svg10.dtd">
<svg version="1.0" xmlns="http://www.w3.org/2000/svg" width="1024px" height="1024px" viewBox="0 0 10240 10240" preserveAspectRatio="xMidYMid meet">
<g id="layer101" fill="#000000" stroke="none">
 <path d="M3520 8000 l0 -1280 160 0 160 0 0 -320 0 -320 -160 0 -160 0 0 -320 0 -320 -160 0 -160 0 0 800 0 800 -480 0 -480 0 0 -1120 0 -1120 160 0 160 0 0 -160 0 -160 800 0 800 0 0 -320 0 -320 -160 0 -160 0 0 -160 0 -160 -480 0 -480 0 0 -480 0 -480 160 0 160 0 0 -960 0 -960 1920 0 1920 0 0 960 0 960 160 0 160 0 0 480 0 480 -480 0 -480 0 0 160 0 160 -160 0 -160 0 0 320 0 320 800 0 800 0 0 160 0 160 160 0 160 0 0 1120 0 1120 -480 0 -480 0 0 -800 0 -800 -160 0 -160 0 0 320 0 320 -160 0 -160 0 0 320 0 320 160 0 160 0 0 1280 0 1280 -640 0 -640 0 0 -800 0 -800 -320 0 -320 0 0 800 0 800 -640 0 -640 0 0 -1280z"/>
 </g>
<g id="layer102" fill="#555457" stroke="none">
 <path d="M3520 7680 l0 -960 160 0 160 0 0 -320 0 -320 -160 0 -160 0 0 -320 0 -320 -160 0 -160 0 0 800 0 800 -480 0 -480 0 0 -1120 0 -1120 160 0 160 0 0 -160 0 -160 800 0 800 0 0 -320 0 -320 -160 0 -160 0 0 -1120 0 -1120 320 0 320 0 0 160 0 160 640 0 640 0 0 -160 0 -160 320 0 320 0 0 1120 0 1120 -160 0 -160 0 0 320 0 320 800 0 800 0 0 160 0 160 160 0 160 0 0 1120 0 1120 -480 0 -480 0 0 -800 0 -800 -160 0 -160 0 0 320 0 320 -160 0 -160 0 0 320 0 320 160 0 160 0 0 960 0 960 -640 0 -640 0 0 -480 0 -480 -320 0 -320 0 0 480 0 480 -640 0 -640 0 0 -960z m2240 -4000 l0 -160 -640 0 -640 0 0 160 0 160 640 0 640 0 0 -160z m-960 -1120 l0 -320 -160 0 -160 0 0 320 0 320 160 0 160 0 0 -320z m960 0 l0 -320 -160 0 -160 0 0 320 0 320 160 0 160 0 0 -320z"/>
 </g>
<g id="layer103" fill="#0049ff" stroke="none">
 <path d="M2240 5920 l0 -1120 160 0 160 0 0 -160 0 -160 800 0 800 0 0 -320 0 -320 -160 0 -160 0 0 -1120 0 -1120 320 0 320 0 0 160 0 160 640 0 640 0 0 -160 0 -160 320 0 320 0 0 1120 0 1120 -160 0 -160 0 0 320 0 320 800 0 800 0 0 160 0 160 160 0 160 0 0 1120 0 1120 -480 0 -480 0 0 -800 0 -800 -160 0 -160 0 0 320 0 320 -160 0 -160 0 0 320 0 320 160 0 160 0 0 160 0 160 -1600 0 -1600 0 0 -160 0 -160 160 0 160 0 0 -320 0 -320 -160 0 -160 0 0 -320 0 -320 -160 0 -160 0 0 800 0 800 -480 0 -480 0 0 -1120z m3520 -2240 l0 -160 -640 0 -640 0 0 160 0 160 640 0 640 0 0 -160z m-960 -1120 l0 -320 -160 0 -160 0 0 320 0 320 160 0 160 0 0 -320z m960 0 l0 -320 -160 0 -160 0 0 320 0 320 160 0 160 0 0 -320z"/>
 </g>
<g id="layer104" fill="#ffda81" stroke="none">
 <path d="M2240 6880 l0 -160 480 0 480 0 0 160 0 160 -480 0 -480 0 0 -160z"/>
 <path d="M7040 6880 l0 -160 480 0 480 0 0 160 0 160 -480 0 -480 0 0 -160z"/>
 <path d="M4160 4000 l0 -160 -160 0 -160 0 0 -1120 0 -1120 320 0 320 0 0 160 0 160 640 0 640 0 0 -160 0 -160 320 0 320 0 0 1120 0 1120 -160 0 -160 0 0 160 0 160 -960 0 -960 0 0 -160z m1600 -320 l0 -160 -640 0 -640 0 0 160 0 160 640 0 640 0 0 -160z m-960 -1120 l0 -320 -160 0 -160 0 0 320 0 320 160 0 160 0 0 -320z m960 0 l0 -320 -160 0 -160 0 0 320 0 320 160 0 160 0 0 -320z"/>
 </g>

</svg>