<!DOCTYPE svg PUBLIC "-//W3C//DTD SVG 20010904//EN" "http://www.w3.org/TR/2001/REC-SVG-20010904/DTD/svg10.dtd">
<svg version="1.0" xmlns="http://www.w3.org/2000/svg" width="1024px" height="1024px" viewBox="0 0 10240 10240" preserveAspectRatio="xMidYMid meet">
<g id="layer101" fill="#000000" stroke="none">
 <path d="M3520 7360 l0 -1920 -160 0 -160 0 0 800 0 800 -480 0 -480 0 0 -1120 0 -1120 160 0 160 0 0 -160 0 -160 320 0 320 0 0 -160 0 -160 160 0 160 0 0 -320 0 -320 -160 0 -160 0 0 -1440 0 -1440 160 0 160 0 0 -160 0 -160 1600 0 1600 0 0 160 0 160 160 0 160 0 0 1440 0 1440 -160 0 -160 0 0 320 0 320 160 0 160 0 0 160 0 160 320 0 320 0 0 160 0 160 160 0 160 0 0 1120 0 1120 -480 0 -480 0 0 -800 0 -800 -160 0 -160 0 0 1920 0 1920 -640 0 -640 0 0 -800 0 -800 -320 0 -320 0 0 800 0 800 -640 0 -640 0 0 -1920z"/>
 </g>
<g id="layer102" fill="#614712" stroke="none">
 <path d="M3520 7040 l0 -1600 -160 0 -160 0 0 800 0 800 -480 0 -480 0 0 -1120 0 -1120 160 0 160 0 0 -160 0 -160 320 0 320 0 0 -160 0 -160 160 0 160 0 0 -320 0 -320 -160 0 -160 0 0 -1120 0 -1120 320 0 320 0 0 -160 0 -160 1280 0 1280 0 0 160 0 160 320 0 320 0 0 1120 0 1120 -160 0 -160 0 0 320 0 320 160 0 160 0 0 160 0 160 320 0 320 0 0 160 0 160 160 0 160 0 0 1120 0 1120 -480 0 -480 0 0 -800 0 -800 -160 0 -160 0 0 1600 0 1600 -640 0 -640 0 0 -480 0 -480 -320 0 -320 0 0 480 0 480 -640 0 -640 0 0 -1600z m2240 -4000 l0 -160 -640 0 -640 0 0 160 0 160 640 0 640 0 0 -160z m-1280 -1120 l0 -320 -160 0 -160 0 0 320 0 320 160 0 160 0 0 -320z m1600 0 l0 -320 -160 0 -160 0 0 320 0 320 160 0 160 0 0 -320z"/>
 </g>
<g id="layer103" fill="#ff0000" stroke="none">
 <path d="M3520 7040 l0 -1600 -160 0 -160 0 0 640 0 640 -480 0 -480 0 0 -960 0 -960 160 0 160 0 0 -160 0 -160 320 0 320 0 0 -160 0 -160 1920 0 1920 0 0 160 0 160 320 0 320 0 0 160 0 160 160 0 160 0 0 960 0 960 -480 0 -480 0 0 -640 0 -640 -160 0 -160 0 0 1600 0 1600 -640 0 -640 0 0 -480 0 -480 -320 0 -320 0 0 480 0 480 -640 0 -640 0 0 -1600z"/>
 </g>
<g id="layer104" fill="#555457" stroke="none">
 <path d="M3520 7840 l0 -800 1600 0 1600 0 0 800 0 800 -640 0 -640 0 0 -480 0 -480 -320 0 -320 0 0 480 0 480 -640 0 -640 0 0 -800z"/>
 </g>

</svg>